<svg width="132" height="40" viewBox="0 0 132 40" fill="none" xmlns="http://www.w3.org/2000/svg">
    <path
        d="M8 38.1C8 39.3 8.7 40 9.9 40V0C8.7 0 8 0.7 8 1.9V2C8 3.2 7.2 3.8 6.1 3.8H5.9C4.7 3.8 3.8 4.7 3.8 5.9V6.1C3.8 7.2 3.2 8 2 8H1.9C0.7 8 0 8.7 0 9.9V30.1C0 31.3 0.7 32 1.9 32H2C3.2 32 3.8 32.8 3.8 33.9V34.1C3.8 35.3 4.7 36.2 5.9 36.2H6.1C7.2 36.2 8 36.8 8 38V38.1Z"
        fill="#1A1A1A" />
    <rect width="112" height="40" transform="translate(9.8999)" fill="#1A1A1A" />
    <g clip-path="url(#clip0_7563_95293)">
        <path
            d="M23.2647 15.6H26.5227C26.9867 15.6 27.4027 15.642 27.7707 15.726C28.1427 15.81 28.4727 15.94 28.7607 16.116C29.0527 16.292 29.2767 16.53 29.4327 16.83C29.5887 17.13 29.6667 17.482 29.6667 17.886C29.6667 18.314 29.5447 18.694 29.3007 19.026C29.0567 19.354 28.7467 19.57 28.3707 19.674C28.7907 19.798 29.1427 20.034 29.4267 20.382C29.7147 20.73 29.8587 21.136 29.8587 21.6C29.8587 22.412 29.5827 23.016 29.0307 23.412C28.4787 23.804 27.7067 24 26.7147 24H23.2647V15.6ZM26.6547 20.4H24.6207V22.728H26.6547C26.9427 22.728 27.1867 22.712 27.3867 22.68C27.5907 22.648 27.7747 22.59 27.9387 22.506C28.1067 22.422 28.2307 22.302 28.3107 22.146C28.3947 21.986 28.4367 21.788 28.4367 21.552C28.4367 21.32 28.3947 21.128 28.3107 20.976C28.2307 20.82 28.1067 20.702 27.9387 20.622C27.7747 20.538 27.5907 20.48 27.3867 20.448C27.1867 20.416 26.9427 20.4 26.6547 20.4ZM26.4687 16.872H24.6207V19.134H26.4807C26.6887 19.134 26.8707 19.128 27.0267 19.116C27.1867 19.1 27.3467 19.068 27.5067 19.02C27.6667 18.972 27.7967 18.908 27.8967 18.828C28.0007 18.744 28.0847 18.632 28.1487 18.492C28.2127 18.352 28.2447 18.184 28.2447 17.988C28.2447 17.756 28.1987 17.564 28.1067 17.412C28.0147 17.256 27.8787 17.142 27.6987 17.07C27.5227 16.994 27.3387 16.942 27.1467 16.914C26.9587 16.886 26.7327 16.872 26.4687 16.872ZM38.4527 15.6V20.688C38.4527 21.256 38.3607 21.764 38.1767 22.212C37.9927 22.656 37.7387 23.018 37.4147 23.298C37.0907 23.578 36.7147 23.79 36.2867 23.934C35.8587 24.078 35.3927 24.15 34.8887 24.15C34.3847 24.15 33.9187 24.078 33.4907 23.934C33.0627 23.79 32.6867 23.578 32.3627 23.298C32.0387 23.018 31.7847 22.656 31.6007 22.212C31.4167 21.764 31.3247 21.256 31.3247 20.688V15.6H32.6807V20.586C32.6807 21.354 32.8767 21.924 33.2687 22.296C33.6647 22.664 34.2047 22.848 34.8887 22.848C35.5727 22.848 36.1107 22.664 36.5027 22.296C36.8987 21.924 37.0967 21.354 37.0967 20.586V15.6H38.4527ZM47.1485 15.6L43.9085 20.592V24H42.5525V20.568L39.2885 15.6H40.9085L43.2365 19.362L45.5705 15.6H47.1485ZM58.1353 15.6V24H56.9113L52.2253 17.922L52.2193 24H50.8633V15.6H52.0873L56.7793 21.678V15.6H58.1353ZM61.836 16.008C62.508 15.632 63.268 15.444 64.116 15.444C64.964 15.444 65.722 15.632 66.39 16.008C67.062 16.384 67.584 16.904 67.956 17.568C68.328 18.228 68.514 18.972 68.514 19.8C68.514 20.628 68.328 21.374 67.956 22.038C67.584 22.698 67.062 23.216 66.39 23.592C65.722 23.968 64.964 24.156 64.116 24.156C63.268 24.156 62.508 23.968 61.836 23.592C61.168 23.216 60.648 22.698 60.276 22.038C59.904 21.374 59.718 20.628 59.718 19.8C59.718 18.972 59.904 18.228 60.276 17.568C60.648 16.904 61.168 16.384 61.836 16.008ZM66.252 17.598C65.692 17.03 64.98 16.746 64.116 16.746C63.252 16.746 62.54 17.03 61.98 17.598C61.42 18.166 61.14 18.9 61.14 19.8C61.14 20.7 61.42 21.434 61.98 22.002C62.54 22.57 63.252 22.854 64.116 22.854C64.98 22.854 65.692 22.57 66.252 22.002C66.812 21.434 67.092 20.7 67.092 19.8C67.092 18.9 66.812 18.166 66.252 17.598ZM81.629 15.6L79.067 24H77.387L75.377 17.442L73.367 24H71.687L69.125 15.6H70.547L72.545 22.434L74.621 15.6H76.163L78.233 22.434L80.237 15.6H81.629Z"
            fill="white" />
        <path
            d="M105.015 19.2013C104.698 19.078 104.486 18.7738 104.486 18.398V18.3158C104.486 17.8229 104.283 17.6175 103.796 17.6175H103.714C103.227 17.6175 102.861 17.2477 102.861 16.7548V16.6726C102.861 16.1796 102.658 15.9743 102.17 15.9743H102.089C101.602 15.9743 101.236 15.6045 101.236 15.1116V15.0294C101.236 14.5365 101.602 14.1667 102.089 14.1667H102.17C102.658 14.1667 103.024 14.5365 103.024 15.0294V15.1116C103.024 15.6045 103.227 15.81 103.714 15.81H103.796C104.283 15.81 104.649 16.1796 104.649 16.6726V16.7548C104.649 17.2477 104.851 17.4531 105.339 17.4531H105.42C105.908 17.4531 106.273 17.8229 106.273 18.3158V18.398C106.273 18.8499 106.517 19.1785 107.004 19.1785H107.045C107.471 19.1785 107.817 19.528 107.817 19.959V20.0412C107.817 20.4722 107.471 20.8217 107.045 20.8217H107.004C106.517 20.8217 106.273 21.1503 106.273 21.6022V21.6843C106.273 22.1773 105.908 22.5471 105.42 22.5471H105.339C104.851 22.5471 104.649 22.7524 104.649 23.2454V23.3276C104.649 23.8205 104.283 24.1902 103.796 24.1902H103.714C103.227 24.1902 103.024 24.3956 103.024 24.8885V24.9708C103.024 25.4637 102.658 25.8334 102.17 25.8334H102.089C101.602 25.8334 101.236 25.4637 101.236 24.9708V24.8885C101.236 24.3956 101.602 24.0259 102.089 24.0259H102.17C102.658 24.0259 102.861 23.8205 102.861 23.3276V23.2454C102.861 22.7524 103.227 22.3827 103.714 22.3827H103.796C104.283 22.3827 104.486 22.1773 104.486 21.6843V21.6022C104.486 21.2186 104.707 20.9097 105.035 20.7915H91.9361C91.5019 20.7915 91.15 20.4355 91.15 19.9964C91.15 19.5573 91.5019 19.2013 91.9361 19.2013H105.015Z"
            fill="#FF0037" />
    </g>
    <path
        d="M123.8 38.1C123.8 39.3 123.1 40 121.9 40V0C123.1 0 123.8 0.7 123.8 1.9V2C123.8 3.2 124.6 3.8 125.7 3.8H125.9C127.1 3.8 128 4.7 128 5.9V6.1C128 7.2 128.6 8 129.8 8H129.9C131.1 8 131.8 8.7 131.8 9.9V30.1C131.8 31.3 131.1 32 129.9 32H129.8C128.6 32 128 32.8 128 33.9V34.1C128 35.3 127.1 36.2 125.9 36.2H125.7C124.6 36.2 123.8 36.8 123.8 38V38.1Z"
        fill="#1A1A1A" />
    <defs>
        <clipPath id="clip0_7563_95293">
            <rect width="88" height="20" fill="white" transform="translate(21.8999 10)" />
        </clipPath>
    </defs>
</svg>
    