<svg width="17" height="16" viewBox="0 0 17 16" fill="none" xmlns="http://www.w3.org/2000/svg">
    <path
        d="M8.96738 9.86336C9.36996 9.86336 9.57125 9.59498 9.57125 9.22595L9.57125 9.15886C9.57125 8.75628 9.87318 8.45435 10.2758 8.45435L10.3429 8.45435C10.7454 8.45435 10.9132 8.28661 10.9132 7.88403L10.9132 7.81694C10.9132 7.41436 11.2151 7.11243 11.6177 7.11243L11.6848 7.11243C12.0873 7.11243 12.2551 6.94469 12.2551 6.54211L12.2551 6.47502C12.2551 6.07244 12.557 5.77051 12.9596 5.77051L13.0267 5.77051C13.4293 5.77051 13.7312 6.07244 13.7312 6.47502L13.7312 6.54211C13.7312 6.94469 13.4293 7.24662 13.0267 7.24662L12.9596 7.24662C12.557 7.24662 12.3893 7.41436 12.3893 7.81694L12.3893 7.88403C12.3893 8.28661 12.0873 8.58854 11.6848 8.58854L11.6177 8.58854C11.2151 8.58854 11.0474 8.75628 11.0474 9.15886L11.0474 9.22595C11.0474 9.62853 10.7454 9.93046 10.3429 9.93046L10.2758 9.93046C9.90673 9.93046 9.63834 10.1317 9.63834 10.5343L9.63834 10.5679C9.63834 10.9199 9.35296 11.2053 9.00093 11.2053L8.93383 11.2053C8.5818 11.2053 8.29642 10.9199 8.29642 10.5679L8.29642 10.5343C8.29642 10.1317 8.02804 9.93046 7.65901 9.93046L7.59191 9.93046C7.18934 9.93046 6.8874 9.62853 6.8874 9.22595L6.8874 9.15886C6.8874 8.75628 6.71966 8.58854 6.31709 8.58854L6.24999 8.58854C5.84742 8.58854 5.54548 8.28661 5.54548 7.88403L5.54548 7.81694C5.54548 7.41436 5.37775 7.24662 4.97517 7.24662L4.90807 7.24662C4.5055 7.24662 4.20356 6.94469 4.20356 6.54211L4.20356 6.47502C4.20356 6.07244 4.5055 5.77051 4.90807 5.77051L4.97517 5.77051C5.37775 5.77051 5.67968 6.07244 5.67968 6.47502L5.67968 6.54211C5.67968 6.94469 5.84742 7.11243 6.24999 7.11243L6.31709 7.11243C6.71966 7.11243 7.0216 7.41436 7.0216 7.81694L7.0216 7.88403C7.0216 8.28661 7.18934 8.45435 7.59191 8.45435L7.65901 8.45435C8.06159 8.45435 8.36352 8.75628 8.36352 9.15886L8.36352 9.22595C8.36352 9.59498 8.56481 9.86336 8.96738 9.86336Z"
        fill="white" />
</svg>
    