<svg width="17" height="16" viewBox="0 0 17 16" fill="none" xmlns="http://www.w3.org/2000/svg">
    <path
        d="M8.96743 7.11222C8.56486 7.11222 8.36357 7.38061 8.36357 7.74963L8.36357 7.81673C8.36357 8.21931 8.06164 8.52124 7.65906 8.52124L7.59196 8.52124C7.18939 8.52124 7.02165 8.68898 7.02165 9.09155L7.02165 9.15865C7.02165 9.56123 6.71971 9.86316 6.31714 9.86316L6.25004 9.86316C5.84747 9.86316 5.67973 10.0309 5.67973 10.4335L5.67973 10.5006C5.67973 10.9031 5.37779 11.2051 4.97522 11.2051L4.90812 11.2051C4.50555 11.2051 4.20361 10.9031 4.20361 10.5006L4.20361 10.4335C4.20361 10.0309 4.50555 9.72897 4.90812 9.72897L4.97522 9.72897C5.37779 9.72897 5.54553 9.56123 5.54553 9.15865L5.54553 9.09155C5.54553 8.68898 5.84747 8.38704 6.25004 8.38704L6.31714 8.38704C6.71971 8.38704 6.88746 8.21931 6.88746 7.81673L6.88746 7.74963C6.88746 7.34706 7.18939 7.04512 7.59196 7.04512L7.65906 7.04512C8.02809 7.04512 8.29647 6.84384 8.29647 6.44126L8.29647 6.40771C8.29647 6.05568 8.58185 5.7703 8.93388 5.7703L9.00098 5.7703C9.35301 5.7703 9.63839 6.05568 9.63839 6.40771L9.63839 6.44126C9.63839 6.84384 9.90678 7.04512 10.2758 7.04512L10.3429 7.04512C10.7455 7.04512 11.0474 7.34706 11.0474 7.74963L11.0474 7.81673C11.0474 8.21931 11.2151 8.38704 11.6177 8.38704L11.6848 8.38704C12.0874 8.38705 12.3893 8.68898 12.3893 9.09155L12.3893 9.15865C12.3893 9.56123 12.5571 9.72897 12.9596 9.72897L13.0267 9.72897C13.4293 9.72897 13.7312 10.0309 13.7312 10.4335L13.7312 10.5006C13.7312 10.9031 13.4293 11.2051 13.0267 11.2051L12.9596 11.2051C12.5571 11.2051 12.2551 10.9031 12.2551 10.5006L12.2551 10.4335C12.2551 10.0309 12.0874 9.86316 11.6848 9.86316L11.6177 9.86316C11.2151 9.86316 10.9132 9.56123 10.9132 9.15865L10.9132 9.09155C10.9132 8.68898 10.7455 8.52124 10.3429 8.52124L10.2758 8.52124C9.87323 8.52124 9.5713 8.21931 9.5713 7.81673L9.5713 7.74963C9.5713 7.38061 9.37001 7.11222 8.96743 7.11222Z"
        fill="#FF0037" />
</svg>
    