<svg width="24" height="25" viewBox="0 0 24 25" fill="none" xmlns="http://www.w3.org/2000/svg">
    <path
        d="M15.9347 9.75241L14.2916 15.046C13.8984 16.3027 12.1359 16.3237 11.7216 15.0741L11.2301 13.6208C11.0967 13.2206 10.7807 12.8977 10.3805 12.7713L8.91997 12.2798C7.67712 11.8656 7.69818 10.0894 8.95508 9.71029L14.2495 8.06043C15.2887 7.7445 16.2647 8.72038 15.9347 9.75241Z"
        stroke="#FF073C" stroke-width="1.5" stroke-linecap="round" stroke-linejoin="round" />
    <path
        d="M17.3198 20.8657L17.3198 20.806C17.3198 20.0897 17.7939 19.7315 18.4457 19.7315L18.5642 19.7315C19.2754 19.7315 19.8087 19.1942 19.8087 18.4778L19.8087 18.3584C19.8087 17.7017 20.1643 17.2241 20.8754 17.2241L20.9346 17.2241C21.6457 17.2241 22.0605 16.8062 22.0605 16.0899L22.0605 7.91014C22.0605 7.19376 21.6457 6.77587 20.9346 6.77587L20.8754 6.77587C20.1643 6.77587 19.8087 6.29829 19.8087 5.6416L19.8087 5.52221C19.8087 4.80583 19.2754 4.26854 18.5642 4.26854L18.4457 4.26854C17.7939 4.26854 17.3198 3.91035 17.3198 3.19397L17.3198 3.13427C17.3198 2.41789 16.905 2 16.1939 2L7.92721 2C7.2161 2 6.80129 2.41789 6.80129 3.13427L6.80129 3.19397C6.80129 3.91035 6.32721 4.26854 5.67536 4.26854L5.55684 4.26854C4.84573 4.26854 4.3124 4.80582 4.3124 5.52221L4.3124 5.6416C4.3124 6.29829 3.95684 6.77587 3.24573 6.77587L3.18647 6.77587C2.47536 6.77587 2.06055 7.19376 2.06055 7.91014L2.06055 16.0899C2.06055 16.8062 2.47536 17.2241 3.18647 17.2241L3.24573 17.2241C3.95684 17.2241 4.3124 17.7017 4.3124 18.3584L4.3124 18.4778C4.3124 19.1942 4.84573 19.7315 5.55684 19.7315L5.67536 19.7315C6.32721 19.7315 6.80129 20.0897 6.80129 20.806L6.80129 20.8657C6.80129 21.5821 7.2161 22 7.92721 22L16.1939 22C16.905 22 17.3198 21.5821 17.3198 20.8657Z"
        stroke="#FF0037" stroke-width="1.5" />
</svg>
    