<svg width="24" height="25" viewBox="0 0 24 25" fill="none" xmlns="http://www.w3.org/2000/svg">
    <path
        d="M21.97 18.7275C21.97 19.0875 21.89 19.4575 21.72 19.8175C21.55 20.1775 21.33 20.5175 21.04 20.8375C20.55 21.3775 20.01 21.7675 19.4 22.0175C18.8 22.2675 18.15 22.3975 17.45 22.3975C16.43 22.3975 15.34 22.1575 14.19 21.6675C13.04 21.1775 11.89 20.5175 10.75 19.6875C9.6 18.8475 8.51 17.9175 7.47 16.8875C6.44 15.8475 5.51 14.7575 4.68 13.6175C3.86 12.4775 3.2 11.3375 2.72 10.2075C2.24 9.06746 2 7.97746 2 6.93746C2 6.25746 2.12 5.60746 2.36 5.00746C2.6 4.39746 2.98 3.83746 3.51 3.33746C4.15 2.70746 4.85 2.39746 5.59 2.39746C5.87 2.39746 6.15 2.45746 6.4 2.57746C6.66 2.69746 6.89 2.87746 7.07 3.13746L9.39 6.40746C9.57 6.65746 9.7 6.88746 9.79 7.10746C9.88 7.31746 9.93 7.52746 9.93 7.71746C9.93 7.95746 9.86 8.19746 9.72 8.42746C9.59 8.65746 9.4 8.89746 9.16 9.13746L8.4 9.92746C8.29 10.0375 8.24 10.1675 8.24 10.3275C8.24 10.4075 8.25 10.4775 8.27 10.5575C8.3 10.6375 8.33 10.6975 8.35 10.7575C8.53 11.0875 8.84 11.5175 9.28 12.0375C9.73 12.5575 10.21 13.0875 10.73 13.6175C11.27 14.1475 11.79 14.6375 12.32 15.0875C12.84 15.5275 13.27 15.8275 13.61 16.0075C13.66 16.0275 13.72 16.0575 13.79 16.0875C13.87 16.1175 13.95 16.1275 14.04 16.1275C14.21 16.1275 14.34 16.0675 14.45 15.9575L15.21 15.2075C15.46 14.9575 15.7 14.7675 15.93 14.6475C16.16 14.5075 16.39 14.4375 16.64 14.4375C16.83 14.4375 17.03 14.4775 17.25 14.5675C17.47 14.6575 17.7 14.7875 17.95 14.9575L21.26 17.3075C21.52 17.4875 21.7 17.6975 21.81 17.9475C21.91 18.1975 21.97 18.4475 21.97 18.7275Z"
        stroke="#FF073C" stroke-width="1.5" stroke-miterlimit="10" />
</svg>
    