<svg
    width="52"
    height="34"
    viewBox="0 0 52 34"
    fill="none"
    xmlns="http://www.w3.org/2000/svg"
>
    <path
        d="M29.4491 13.417C27.8135 13.417 26.3957 14.5453 25.959 15.9001H31.9572C31.9572 14.4331 30.9762 13.417 29.4491 13.417Z"
        fill="#FF073C"
    />
    <path
        d="M25.7389 0.098877C11.5607 0.098877 0 6.19348 0 15.3344C0 21.2025 4.79838 26.3943 11.9964 29.3283L11.2333 33.6172C32.2823 35.4229 51.5862 28.5387 51.5862 15.5598C51.4768 4.61321 37.2995 0.098877 25.7389 0.098877Z"
        fill="#FF073C"
    />
    <path
        d="M28.2073 24.223C31.1521 24.223 33.5508 22.7559 34.6422 20.0473H31.0427C30.3881 20.9502 29.625 21.4011 28.4251 21.4011C26.898 21.4011 25.6982 20.2728 25.5897 18.8058H34.9686C36.3863 14.2914 34.096 10.7932 29.5156 10.7932C25.8076 10.7932 23.19 12.9376 22.5354 16.5491C21.7733 20.9502 24.172 24.223 28.2073 24.223ZM29.5165 13.614C31.1521 13.614 32.1341 14.6301 32.1341 16.0972H26.1359C26.4622 14.7434 27.7715 13.614 29.5165 13.614Z"
        fill="#F8F6F3"
    />
    <path
        d="M19.7002 24.224H20.5727L21.2273 20.9512H20.4642C19.2644 20.9512 18.7192 20.0484 18.9371 18.6946L19.8096 13.9548H22.5366L23.1912 10.682H20.4633L21.0085 7.52246H17.5184L15.446 18.5823C14.9018 21.8541 16.2101 24.224 19.7002 24.224Z"
        fill="#F8F6F3"
    />
    <path
        d="M40.5327 24.223H41.5146L42.1693 20.9503H41.4062C40.2063 20.9503 39.5517 20.0474 39.879 18.6936L41.9514 7.52051H38.4613L36.3889 18.5804C35.7333 22.0786 37.2605 24.223 40.5327 24.223Z"
        fill="#F8F6F3"
    />
    <path
        d="M16.2094 7.63403H12.7193L12.1741 10.9068H15.5547L16.2094 7.63403Z"
        fill="#F8F6F3"
    />
    <path
        d="M15.3379 12.2585H11.8479L9.55762 24.2213H13.0477L15.3379 12.2585Z"
        fill="#F8F6F3"
    />
</svg>